<?xml version="1.0" encoding="iso-8859-1"?>
<!-- Generator: Adobe Illustrator 24.0.0, SVG Export Plug-In . SVG Version: 6.00 Build 0)  -->
<svg version="1.1" xmlns="http://www.w3.org/2000/svg" xmlns:xlink="http://www.w3.org/1999/xlink" x="0px" y="0px"
	 viewBox="0 0 1200 1200" enable-background="new 0 0 1200 1200" xml:space="preserve">
<g id="Background_x5F_Simple">
	<path fill="#EFE4E8" d="M934.7943115,167.7972565c0,0,131.9892578-51.1744156,176.6478271-66.2758102
		c39.5263672-13.3659439,58.4016113-14.8302917,69.7178955-25.8560104s-28.7259521-57.7652245-76.6026611-57.8985291
		c-47.8765869-0.1333046-65.0944824,20.7583065-63.8846436,46.872818s7.3032227,38.229538,7.3032227,38.229538
		s-53.9699707-24.1691284-71.3796387-6.3905487s-3.4819336,33.4240723-9.5753174,38.2233429
		s-47.0249023,23.5198822-49.6363525,33.0951996S934.7943115,167.7972565,934.7943115,167.7972565z"/>
	<path fill="#EFE4E8" d="M96.0191422,237.021698c0,0,69.3490372-31.9425812,88.262413-40.348526
		s58.2925568-25.9158936,69.7693176-31.5222931c11.4767761-5.6063843-8.3805084-49.6925888-47.0732727-52.1168442
		c-28.1392212-1.7630234-58.8416138,5.4638672-66.4069519,31.9425888
		c-7.5653534,26.478714,2.5217743,39.0876312,2.5217743,39.0876312s-22.6960449-9.2465363-30.6816864-1.2608948
		c-7.9856491,7.9856567,0.8405914,22.2757568,0.8405914,22.2757568s-22.2757492,10.0871277-33.203476,18.9133759
		C69.1201248,232.8187256,72.0622025,243.74646,96.0191422,237.021698z"/>
</g>
<g id="Layer_x5F_Bubbles">
	<g>
		<path fill="#EFE4E8" d="M54.4097252,243.3261566c0,0-19.3336716-4.2029724-23.9569397,0
			s-3.7826729,11.7061005,3.3623772,14.6481781s21.0569382,1.8194275,23.1584244-4.4850311
			S54.4097252,243.3261566,54.4097252,243.3261566z"/>
		<path fill="#EFE4E8" d="M227.0197144,55.8358078c3.2497101-6.4994049,14.7713928-7.3856888,17.4302368,1.1817093
			s-3.4452209,15.3665466-11.1263275,15.0711212C225.6425018,71.7932129,223.7700195,62.3352165,227.0197144,55.8358078z"/>
		<path fill="#EFE4E8" d="M158.7759552,0c-4.7268372,0-14.1805267,3.5451307-7.0902557,11.8171024
			c7.0902557,8.2719707,12.407959,4.726841,14.1805115-1.7725658C167.6387787,3.5451307,163.5027924,0,158.7759552,0z"/>
		<circle fill="#EFE4E8" cx="1042.3354492" cy="345.7144165" r="7.3873692"/>
		<circle fill="#EFE4E8" cx="1069.2425537" cy="216.2250824" r="8.8849344"/>
		<circle fill="#EFE4E8" cx="996.1800537" cy="296.3785095" r="6.3192587"/>
		<circle fill="#EFE4E8" cx="1162.109375" cy="585.0012817" r="10.382288"/>
		<circle fill="#EFE4E8" cx="1085.7711182" cy="605.8510742" r="7.6412396"/>
		<circle fill="#EFE4E8" cx="1055.3791504" cy="540.1365967" r="3.8206198"/>
		<circle fill="#EFE4E8" cx="92.2134018" cy="1043.927124" r="11.8284931"/>
		<circle fill="#EFE4E8" cx="172.1772308" cy="1099.0805664" r="7.49997"/>
		<circle fill="#EFE4E8" cx="98.3206253" cy="1114.3986816" r="6.7936139"/>
	</g>
</g>
<g id="Layer_x5F_Diamonds">
	<ellipse id="D3_2_" fill="#F6B042" cx="1135.3579102" cy="460.4749146" rx="43.734951" ry="57.3942108"/>
	<ellipse id="D3_3_" fill="#F6B042" cx="201.4455872" cy="344.6148682" rx="36.534832" ry="47.9453545"/>
	<ellipse id="D3_4_" fill="#F6B042" cx="555.4868774" cy="92.1203232" rx="16.9377346" ry="22.2277126"/>
</g>
<g id="Layer_x5F_Plants">
	<g id="PLANT2">
		<g>
			<path fill="#49BCCB" d="M687.638916,1199.6494141c-7.3275757,2.6646729-12.3936768-10.2141113,5.4606323-26.6456299
				c17.8543701-16.4316406,28.9567261-17.8197021,23.8496704-4.0247803
				C711.8421021,1182.7738037,694.9664917,1196.9848633,687.638916,1199.6494141z"/>
			
				<linearGradient id="SVGID_1_" gradientUnits="userSpaceOnUse" x1="707.3969727" y1="1168.4682617" x2="657.7692871" y2="1231.5297852">
				<stop  offset="0" style="stop-color:#222E51;stop-opacity:0"/>
				<stop  offset="1" style="stop-color:#231F20"/>
			</linearGradient>
			<path fill="url(#SVGID_1_)" d="M687.638916,1199.6494141c-7.3275757,2.6646729-12.3936768-10.2141113,5.4606323-26.6456299
				c12.56073-9.8677979,5.0481567-3.3016357-0.05896,10.4932861c-2.4712524,6.6750488,16.2105713-1.0704346,10.6433716,4.4443359
				C697.7459717,1193.8233643,691.4207764,1198.274292,687.638916,1199.6494141z"/>
		</g>
		<path fill="none" stroke="#304954" stroke-width="2" stroke-miterlimit="10" d="M673.3776245,1197.8730469
			c0,0,0-51.5150146-24.9674683-89.8214111c-16.022583-24.5825195-26.645752-45.5084229-45.7418213-54.5096436"/>
		<path fill="#49BCCB" d="M649.2849121,1104.1689453c-5.0196533,0.0211182-14.0924072-30.0895996-12.7121582-48.2584229
			c2.215332-29.1622314,12.6629639-41.0097046,20.6947632-32.1228638
			C677.720459,1046.4178467,656.8118286,1105.4685059,649.2849121,1104.1689453z"/>
		
			<linearGradient id="SVGID_2_" gradientUnits="userSpaceOnUse" x1="655.4508057" y1="1028.2601318" x2="627.0286865" y2="1213.447998">
			<stop  offset="0" style="stop-color:#222E51;stop-opacity:0"/>
			<stop  offset="1" style="stop-color:#231F20"/>
		</linearGradient>
		<path fill="url(#SVGID_2_)" d="M649.2849121,1104.1689453c-5.0196533,0.0211182-14.0924072-30.0895996-12.7121582-48.2584229
			c2.215332-29.1622314,6.487854,10.7562256,13.3815308,17.5789795c6.8936768,6.822876,17.1749878-11.8487549,12.0422974,6.8234863
			C658.1646729,1094.2531738,652.5023193,1104.7244873,649.2849121,1104.1689453z"/>
		<path fill="#49BCCB" d="M665.3383789,1160.1315918c0,0-13.2983398-15.5914307-39.0559082-21.364624
			c-25.7575073-5.7733154-53.2914429-3.5047607-49.2946167,13.8150635
			c3.9968872,17.3197021,43.0772705,19.0960693,63.0615845,16.4315186S665.3383789,1160.1315918,665.3383789,1160.1315918z"/>
		
			<linearGradient id="SVGID_3_" gradientUnits="userSpaceOnUse" x1="611.46521" y1="1146.2669678" x2="741.444458" y2="1197.1640625">
			<stop  offset="0" style="stop-color:#222E51;stop-opacity:0"/>
			<stop  offset="1" style="stop-color:#231F20"/>
		</linearGradient>
		<path fill="url(#SVGID_3_)" d="M665.3383789,1160.1315918c0,0-13.2983398-15.5914307-39.0559082-21.364624
			c-25.7575073-5.7733154,3.5737915,13.0355225,11.7404785,16.9169922
			c8.166748,3.8815918-17.9578247,15.9941406,2.0264893,13.3295898S665.3383789,1160.1315918,665.3383789,1160.1315918z"/>
		<path fill="#49BCCB" d="M615.2390747,1060.4616699c0-4.2550049-16.8641968-18.4625244-33.7217407-25.5716553
			c-20.0083008-8.4377441-46.5167847-8.8818359-50.5623779,3.5527344
			c-4.0455933,12.4346924,29.888916,20.9533691,47.4694824,23.5371094
			C600.1851196,1065.1779785,615.2390747,1064.7167969,615.2390747,1060.4616699z"/>
		
			<linearGradient id="SVGID_4_" gradientUnits="userSpaceOnUse" x1="569.6401367" y1="1040.4604492" x2="665.5974731" y2="1110.666626">
			<stop  offset="0" style="stop-color:#222E51;stop-opacity:0"/>
			<stop  offset="1" style="stop-color:#231F20"/>
		</linearGradient>
		<path fill="url(#SVGID_4_)" d="M615.2390747,1060.4616699c-0.2471313-4.3660889-16.8641968-18.4625244-33.7217407-25.5716553
			c-17.4853516-6.0944824-5.3266602,9.7701416,3.387146,15.543335c8.7138062,5.7733154-24.0606079,8.9627686-6.4800415,11.5465088
			C600.1851196,1065.1779785,615.4862061,1064.8277588,615.2390747,1060.4616699z"/>
	</g>
	<g id="PLANT1">
		<g>
			<path fill="#49BCCB" d="M1008.9390869,981.8911743c-0.3513184,1.168335-1.7058105,1.6938477-2.7531128,1.0680542
				c-6.5556641-3.9171143-26.8815918-17.7553711-33.9784546-42.3857422
				c-8.5102539-29.5356445,3.0036011-58.5706177,18.0217285-57.0688477
				c15.0181274,1.5018311,28.2360229,34.1166382,28.5344238,54.5657959
				C1019.1069946,961.5988159,1010.7866821,975.7463989,1008.9390869,981.8911743z"/>
			
				<linearGradient id="SVGID_5_" gradientUnits="userSpaceOnUse" x1="993.8430176" y1="923.7106323" x2="1003.3544922" y2="1054.6185303">
				<stop  offset="0" style="stop-color:#222E51;stop-opacity:0"/>
				<stop  offset="1" style="stop-color:#231F20"/>
			</linearGradient>
			<path fill="url(#SVGID_5_)" d="M1008.9390869,981.8911743c-0.3513184,1.168335-1.7058105,1.6938477-2.7531128,1.0680542
				c-6.5556641-3.9171143-26.8815918-17.7553711-33.9784546-42.3857422
				c-8.5102539-29.5356445,15.9973755,14.0168457,29.2354126,13.015686
				c13.2379761-1.0012207,17.0223389-35.9678955,17.3207397-15.5187378
				C1019.1069946,961.5988159,1010.7866821,975.7463989,1008.9390869,981.8911743z"/>
		</g>
		<path fill="none" stroke="#304954" stroke-width="2" stroke-linecap="round" stroke-linejoin="round" stroke-miterlimit="10" d="
			M1058.4837646,872.2716675c0,0-40.5488892,67.3005981-51.0615845,148.8989868
			c-9.2572632,71.8538818,10.012085,107.1291504,10.012085,107.1291504"/>
		<g>
			<path fill="#49BCCB" d="M1008.9267578,1075.9866943c0,0-9.5270386-27.5400391,22.7683105-44.4320068
				c32.2952881-16.8919067,55.3231201-10.6212158,37.3013916,13.4077148
				C1050.9747314,1068.9914551,1020.4406128,1079.4909668,1008.9267578,1075.9866943z"/>
			
				<linearGradient id="SVGID_6_" gradientUnits="userSpaceOnUse" x1="1044.8327637" y1="1043.1419678" x2="953.2223511" y2="1122.4876709">
				<stop  offset="0" style="stop-color:#222E51;stop-opacity:0"/>
				<stop  offset="1" style="stop-color:#231F20"/>
			</linearGradient>
			<path fill="url(#SVGID_6_)" d="M1008.9267578,1075.9866943c0,0-9.5270386-27.5400391,22.7683105-44.4320068
				c11.1350098-5.8240967-19.5171509,17.6497803-2.496582,21.9049072
				c17.0205078,4.255127,51.6060791-24.241333,39.7979736-8.4971924
				C1050.9747314,1068.9914551,1020.4406128,1079.4909668,1008.9267578,1075.9866943z"/>
		</g>
		<g>
			<path fill="#49BCCB" d="M1001.414917,1095.7606201c0,0-0.565979-26.6606445-23.5283203-61.0737305
				c-22.9623413-34.4129639-38.5465088-47.557312-45.5549316-40.0482178
				c-7.0084839,7.5090332-10.012085,41.5500488,17.0205078,71.5863037S1002.4161377,1107.2744141,1001.414917,1095.7606201z"/>
			
				<linearGradient id="SVGID_7_" gradientUnits="userSpaceOnUse" x1="966.1010132" y1="1054.0184326" x2="1011.9111938" y2="1121.2584229">
				<stop  offset="0" style="stop-color:#222E51;stop-opacity:0"/>
				<stop  offset="1" style="stop-color:#231F20"/>
			</linearGradient>
			<path fill="url(#SVGID_7_)" d="M1001.414917,1095.7606201c0,0-0.565979-26.6606445-23.5283203-61.0737305
				c-18.0217285-28.5343628,2.0023804,19.5235596-2.4890747,26.0314941
				c-4.491394,6.5078125-26.0453491,5.5065918-26.0453491,5.5065918
				C976.3847656,1096.2612305,1002.4161377,1107.2744141,1001.414917,1095.7606201z"/>
		</g>
		<g>
			<path fill="#49BCCB" d="M1042.1333008,911.3120117c-8.3417969-0.796936-4.4746094-24.5905762,24.7631836-49.932251
				c29.237915-25.3416748,42.5549316,0.7493896,35.9903564,13.9747925
				C1089.3933105,902.5394897,1050.4752197,912.1089478,1042.1333008,911.3120117z"/>
			
				<linearGradient id="SVGID_8_" gradientUnits="userSpaceOnUse" x1="1063.3795166" y1="844.6972046" x2="1007.2631226" y2="985.6809692" gradientTransform="matrix(0.9660076 0.2585135 -0.2585135 0.9660076 279.2744751 -228.8005219)">
				<stop  offset="0" style="stop-color:#222E51;stop-opacity:0"/>
				<stop  offset="1" style="stop-color:#231F20"/>
			</linearGradient>
			<path fill="url(#SVGID_8_)" d="M1042.1333008,911.3120117c-8.8883057-1.3170776-2.7976074-27.1815796,26.3625488-50.835144
				c12.8786621-10.4466553-18.9923096,25.1338501-1.8096924,25.8466187
				c17.1824951,0.7127686,39.984375-21.6092529,36.9422607-13.7399292
				C1092.149292,902.2772827,1050.4752197,912.1089478,1042.1333008,911.3120117z"/>
		</g>
	</g>
	<g id="dots">
		<circle fill="#49BCCB" cx="1123.5627441" cy="760.697998" r="8.391345"/>
		<circle fill="#49BCCB" cx="444.9219666" cy="1061.440918" r="6.9934144"/>
		<circle fill="#49BCCB" cx="1045.9951172" cy="788.7531738" r="6.4070625"/>
		<circle fill="#49BCCB" cx="506.9563599" cy="1112.4693604" r="9.3736839"/>
	</g>
</g>
<g id="Layer_x5F_Megaphone">
	<g>
		<path fill="#22AAE2" d="M847.80896,757.4483032l-49.1953735,274.4877319
			c-1.3724365,7.6575928,5.2889404,14.1602783,12.8519897,12.5458984l50.5682983-10.7945557
			c4.6717529-0.9973145,8.2334595-4.9019775,8.8178711-9.6669922l22.6049805-278.5095825L847.80896,757.4483032z"/>
		
			<linearGradient id="SVGID_9_" gradientUnits="userSpaceOnUse" x1="750.7177124" y1="927.3310547" x2="1238.8062744" y2="778.6517944">
			<stop  offset="0" style="stop-color:#222E51;stop-opacity:0"/>
			<stop  offset="1" style="stop-color:#231F20"/>
		</linearGradient>
		<path fill="url(#SVGID_9_)" d="M847.80896,757.4483032l-2.8326416,50.1265869
			c-1.3724365,7.6575928,19.6055298,9.5914307,23.7786865,19.7617188
			c4.1730957,10.1702271-6.7211304,206.350769-6.7211304,206.350769c4.6717529-0.9973145,8.2334595-4.9019775,8.8178711-9.6669922
			l22.6049805-278.5095825L847.80896,757.4483032z"/>
		<path fill="#304954" d="M806.4091187,763.1784668c0,0-33.40271,217.4993286-45.0105591,269.7921143
			c-1.2751465,5.7442627,2.2596436,11.4509277,7.9732666,12.8568115
			c12.9200439,3.1789551,26.8859253,5.0368652,38.1549683-1.3916016c0,0,42.4733887-250.302124,40.5872192-287.0964966
			L806.4091187,763.1784668z"/>
		<path fill="#22AAE2" d="M823.2000732,771.0219727c0,0-12.8562622,86.793396-18.9485474,91.6624756
			c-6.0922852,4.8691406-34.1352539,5.5299683-36.1196899-9.5933838
			c-1.9844971-15.1233521,11.298645-59.826355,3.4726563-89.6411743
			C763.7785645,733.6351318,818.7350464,743.8046875,823.2000732,771.0219727z"/>
		
			<linearGradient id="SVGID_10_" gradientUnits="userSpaceOnUse" x1="758.9661865" y1="744.4877319" x2="912.5089722" y2="972.4987183" gradientTransform="matrix(0.9910244 0.2632164 0 1 6.7625165 -198.3157349)">
			<stop  offset="0" style="stop-color:#222E51;stop-opacity:0"/>
			<stop  offset="1" style="stop-color:#231F20"/>
		</linearGradient>
		<path fill="url(#SVGID_10_)" d="M823.2000732,771.0219727c0,0-12.8562622,86.793396-18.9485474,91.6624756
			c-1.7383423,1.3892822-5.2503662,2.6514282-9.4608765,2.8711548c-4.2104492,0.2197266-19.0518188,2.7736816-26.1661377-10.3066406
			c9.2954712,0.4733887,15.4107056-0.34198,19.1831665-1.2623901c3.1729736-0.7741699,5.3458252-3.2897949,5.8738403-6.6965332
			l10.7282715-69.2169189C804.40979,778.0731201,818.7350464,743.8046875,823.2000732,771.0219727z"/>
	</g>
	<path fill="#304954" d="M886.3918457,596.7128296c0,0,10.3464355,0,49.4766235,0
		c39.130249,0,51.3110352,145.8300781-4.2764282,145.8300781s-58.6639404-1.6477051-58.6639404-1.6477051L886.3918457,596.7128296z"
		/>
	
		<linearGradient id="SVGID_11_" gradientUnits="userSpaceOnUse" x1="868.7435303" y1="567.0531616" x2="932.8208008" y2="719.7373047">
		<stop  offset="0" style="stop-color:#222E51;stop-opacity:0"/>
		<stop  offset="1" style="stop-color:#231F20"/>
	</linearGradient>
	<path fill="url(#SVGID_11_)" d="M892.4921875,669.6278687c0,0,56.359375-37.1891479,43.3762817-72.9150391
		c23.4830933,0,37.2602539,52.520874,32.5092163,94.524353c-3.1657715,27.9876099-14.5576172,51.3057251-36.7856445,51.3057251
		c-55.5874634,0-58.6639404-1.6477051-58.6639404-1.6477051L892.4921875,669.6278687z"/>
	<path fill="#22AAE2" d="M869.5580444,573.1576538c13.0410767,0.5684204,24.7618408,8.0839844,30.727417,19.6945801
		c9.5216064,18.5316772,21.7060547,47.9264526,20.7825928,75.6299438
		c-0.7792358,23.3779297-6.0063477,49.3841553-10.8556519,68.9968262
		c-4.5048828,18.2197266-19.630249,31.8686523-38.2305908,34.375061
		c-46.4907227,6.2645874-139.7980347,21.8889771-221.2396851,54.3182373
		c-67.8881836,27.0323486-154.5085754,90.2759399-215.6958618,126.8400269
		c-41.3931885,24.7355957-68.646698,30.7052002-80.1608887,30.0991821c-28.5343933-1.50177,0-558.5263672,0-558.5263672
		s21.7762756-14.8643799,48.8088684,7.7089233c27.0325928,22.5733337,124.420929,104.858551,251.4297791,122.0504456
		C746.6829224,566.737915,832.1472778,571.5269775,869.5580444,573.1576538z"/>
	
		<linearGradient id="SVGID_12_" gradientUnits="userSpaceOnUse" x1="950.8552856" y1="568.0484619" x2="-482.6231384" y2="895.4432373">
		<stop  offset="0" style="stop-color:#222E51;stop-opacity:0"/>
		<stop  offset="1" style="stop-color:#231F20"/>
	</linearGradient>
	<path fill="url(#SVGID_12_)" d="M916.8742065,635.1759033c9.664978,23.2359619,0.8526001,70.7304077-6.8543701,102.2625122
		c-4.4629517,18.2597046-19.6251831,31.9307251-38.25354,34.4447021
		c-46.5631714,6.2838135-139.7081909,21.9099731-221.0241699,54.2891846
		c-70.836853,28.2064819-162.6320801,95.4059448-224.5207214,132.1593628
		c-37.5486755,22.2987671-60.5610962,25.3469849-71.3360291,24.7798462c-28.5343933-1.50177,0-558.5263672,0-558.5263672
		s21.7762756-14.8643799,48.8088684,7.7089233c8.8833008,7.4179077,24.0346069,21.3589172,47.1029968,36.539093
		c47.1304932,31.0143127,100.5404053,131.5205688,78.6034546,243.9523926
		C507.4637756,825.2174072,894.0354614,702.7520142,916.8742065,635.1759033z"/>
	<path fill="#304954" d="M492.6730652,703.8557739c0,154.2368774-71.7980652,281.0078735-150.469635,281.0078735
		S207.7780609,858.0926514,207.7780609,703.8557739s68.4781952-281.4137878,147.1073151-283.9978638
		C422.056366,417.6503906,492.6730652,549.6188965,492.6730652,703.8557739z"/>
	
		<linearGradient id="SVGID_13_" gradientUnits="userSpaceOnUse" x1="304.0834351" y1="576.1444092" x2="469.3178406" y2="1143.6236572">
		<stop  offset="0" style="stop-color:#222E51;stop-opacity:0"/>
		<stop  offset="1" style="stop-color:#231F20"/>
	</linearGradient>
	<path fill="url(#SVGID_13_)" d="M492.6730652,703.8557739c0.2773132,153.0202026-71.7980652,281.0078735-150.469635,281.0078735
		S207.7780609,858.0926514,207.7780609,703.8557739s37.9362488,272.1974487,154.1101532,158.0393066
		S489.1743164,605.8510742,492.6730652,703.8557739z"/>
	<g>
		<path fill="#EFE4E8" d="M485.0857544,617.4262085c0,0-43.0193176,51.9379883-120.566803,24.2886353l-1.7487183,117.4365845
			c0,0,43.9090271-5.4080811,71.8849487,2.2600098c26.8993225,7.3729858,50.0915527,31.3793335,50.0915527,31.3793335
			C490.0499878,765.0217896,499.3739624,697.5877075,485.0857544,617.4262085z"/>
		
			<linearGradient id="SVGID_14_" gradientUnits="userSpaceOnUse" x1="394.6529236" y1="653.7270508" x2="701.6867065" y2="1016.2071533">
			<stop  offset="0" style="stop-color:#222E51;stop-opacity:0"/>
			<stop  offset="1" style="stop-color:#231F20"/>
		</linearGradient>
		<path fill="url(#SVGID_14_)" d="M485.0857544,617.4262085c0,0,6.3348694,112.3091431-42.8161926,112.3091431
			s-79.4993286,29.4160767-79.4993286,29.4160767s43.9090271-5.4080811,71.8849487,2.2600098
			c26.8993225,7.3729858,50.0915527,31.3793335,50.0915527,31.3793335
			C490.0499878,765.0217896,499.3739624,697.5877075,485.0857544,617.4262085z"/>
		<path fill="#EFE4E8" d="M382.5942688,694.8978271c0,32.4729004-11.6978149,63.6831665-22.2698059,64.425293
			c-10.571991,0.7420654-19.1423035-24.980835-19.1423035-57.4537354s10.7220764-59.5499878,21.2940674-60.2921143
			C373.0482178,640.8352051,382.5942688,662.4249268,382.5942688,694.8978271z"/>
		
			<linearGradient id="SVGID_15_" gradientUnits="userSpaceOnUse" x1="359.9162903" y1="546.7445679" x2="369.6780701" y2="1020.5658569" gradientTransform="matrix(1.0067874 -0.0706697 0 1 -3.4131553 35.5373993)">
			<stop  offset="0" style="stop-color:#222E51;stop-opacity:0"/>
			<stop  offset="1" style="stop-color:#231F20"/>
		</linearGradient>
		<path fill="url(#SVGID_15_)" d="M382.5942688,694.8978271c0,32.4729004-11.6978149,63.6831665-22.2698059,64.425293
			c-10.571991,0.7420654-19.1423035-24.980835-19.1423035-57.4537354s10.7220764-59.5499878,21.2940674-60.2921143
			C373.0482178,640.8352051,382.5942688,662.4249268,382.5942688,694.8978271z"/>
	</g>
	<g id="light">
		<g>
			
				<line fill="none" stroke="#F6B042" stroke-width="3" stroke-miterlimit="10" x1="350.2259521" y1="573.9003296" x2="125.3586426" y2="513.9135132"/>
			<path fill="none" stroke="#F6B042" stroke-width="3" stroke-miterlimit="10" d="M278.543335,616.8939819
				c0,0-35.740036-9.2462158-47.7241974-11.0429077c-10.6158295-1.5914917-54.3989258-9.1382446-54.3989258-9.1382446"/>
			<path fill="none" stroke="#F6B042" stroke-width="3" stroke-miterlimit="10" d="M138.0406036,588.7192993
				c0,0-41.0494995-11.0132446-74.4230804-9.0108643"/>
			<path fill="none" stroke="#F6B042" stroke-width="3" stroke-miterlimit="10" d="M285.5517883,759.3387451
				c0,0-148.8461304,35.2955322-155.5208435,37.6316528"/>
			<path fill="none" stroke="#F6B042" stroke-width="3" stroke-miterlimit="10" d="M152.3912354,840.1427612
				c1.6686707,1.2145386,64.4109955-12.1348877,100.4544525-22.1469727s86.1038361-23.3615112,86.1038361-23.3615112"/>
			<path fill="none" stroke="#F6B042" stroke-width="3" stroke-miterlimit="10" d="M114.6790924,856.041626
				c0,0-35.0422516,9.0108643-41.0494919,11.3470459"/>
		</g>
		
			<line fill="none" stroke="#F6B042" stroke-width="3" stroke-miterlimit="10" x1="386.8045044" y1="877.5147705" x2="208.1250916" y2="1033.6873779"/>
		
			<line fill="none" stroke="#F6B042" stroke-width="3" stroke-miterlimit="10" x1="418.1958313" y1="535.942627" x2="34.2487831" y2="406.0468445"/>
		
			<line fill="none" stroke="#F6B042" stroke-width="3" stroke-miterlimit="10" x1="378.4107666" y1="949.3208008" x2="295.2910156" y2="1032.0980225"/>
	</g>
</g>
<g id="Layer_x5F_Character_1">
	<g>
		<path fill="#304954" d="M837.21698,170.3815918c7.0084229,14.5175018,4.0063477,34.1000061,4.0063477,34.1000061
			s8.6978149,4.0999298,14.7050781,14.3623047s7.7584229,26.2379456-1.9355469,34.2611542
			c0,0,12.7653809,15.5187225,8.7605591,33.540451s-31.293396,33.1662598-31.293396,33.1662598
			s12.5150757,34.2913513-6.0072632,46.3058167c-18.5223389,12.0144958-36.043457,7.2587585-36.043457,7.2587585
			s-9.0108643,9.0108643-23.5283813,5.2563477c-14.5174561-3.7545471-13.2659912-16.0193176-13.2659912-16.0193176
			s-31.0374146-2.2527161-36.043457-18.0217285s3.2539673-28.2841187,3.2539673-28.2841187
			s-20.7750854,10.09552-31.4545898,1.0846558c-10.6795654-9.0108643-12.0145264-21.2208557-12.0145264-27.5332031
			c0,0-5.0894775-0.5840454-8.0930786-12.0979309s5.9562378-17.3569946,13.015686-20.0241394
			c3.7542114-1.4183655,8.593689-1.4183655,8.593689-1.4183655s-4.8391724-2.8367615-7.0918579-17.3542633
			c-2.2527466-14.5175018,2.7532959-27.5332031,15.5186768-31.7883301
			c12.7654419-4.255127,28.8386841-2.6943512,28.8386841-2.6943512s-5.0842896-10.0530548-1.3413696-22.1160278
			s26.0245361-43.2004852,48.0510864-45.7035065S823.7006836,137.6615906,837.21698,170.3815918z"/>
		
			<linearGradient id="SVGID_16_" gradientUnits="userSpaceOnUse" x1="681.5072632" y1="142.2374573" x2="806.1427002" y2="290.8224487">
			<stop  offset="0" style="stop-color:#222E51;stop-opacity:0"/>
			<stop  offset="1" style="stop-color:#231F20"/>
		</linearGradient>
		<path fill="url(#SVGID_16_)" d="M837.21698,170.3815918c7.0084229,14.5175018,4.0063477,34.1000061,4.0063477,34.1000061
			s8.6978149,4.0999298,14.7050781,14.3623047s7.7584229,26.2379456-1.9355469,34.2611542
			c0,0,12.7653809,15.5187225,8.7605591,33.540451s-31.293396,33.1662598-31.293396,33.1662598
			s12.5150757,34.2913513-6.0072632,46.3058167c-18.5223389,12.0144958-36.043457,7.2587585-36.043457,7.2587585
			s-9.0108643,9.0108643-23.5283813,5.2563477c-14.5174561-3.7545471-13.2659912-16.0193176-13.2659912-16.0193176
			s-31.0374146-2.2527161-36.043457-18.0217285s3.2539673-28.2841187,3.2539673-28.2841187
			s-10.4596558,6.2495422-21.1392212-2.761322s-18.0922852-30.5288086-15.9888916-40.3740234
			c2.1033325-9.8451843,17.354248-13.5162964,17.354248-13.5162964s-6.3366699-26.3065186,8.5102539-36.5688934
			c10.3731079-9.5188904,25.3563843-7.4309998,25.3563843-7.4309998s-1.6669922-17.6521759-0.493042-25.7508698
			c1.7983398-12.4063416,1.50177-31.5408478,40.2359619-52.7302399
			C795.5164185,133.4626312,823.7006836,137.6615906,837.21698,170.3815918z"/>
		
			<linearGradient id="SVGID_17_" gradientUnits="userSpaceOnUse" x1="666.5863647" y1="204.0771942" x2="804.0310669" y2="267.295105">
			<stop  offset="0" style="stop-color:#222E51;stop-opacity:0"/>
			<stop  offset="1" style="stop-color:#231F20"/>
		</linearGradient>
		<path fill="url(#SVGID_17_)" d="M837.21698,170.3815918c7.0084229,14.5175018,4.0063477,34.1000061,4.0063477,34.1000061
			s8.6978149,4.0999298,14.7050781,14.3623047s7.7584229,26.2379456-1.9355469,34.2611542
			c0,0,12.7653809,15.5187225,8.7605591,33.540451s-31.293396,33.1662598-31.293396,33.1662598
			s12.5150757,34.2913513-6.0072632,46.3058167c-18.5223389,12.0144958-36.043457,7.2587585-36.043457,7.2587585
			s-9.0108643,9.0108643-23.5283813,5.2563477c-14.5174561-3.7545471-13.2659912-16.0193176-13.2659912-16.0193176
			s-31.0374146-2.2527161-36.043457-18.0217285s3.2539673-28.2841187,3.2539673-28.2841187
			s-10.4596558,6.2495422-21.1392212-2.761322c-6.3105469-8.5022583,6.4973755-25.8565063,6.4973755-25.8565063
			s-5.901001-16.1174927,2.8776245-23.027771c10.7061157-8.4275208,0.7703857-14.4562836,15.6173096-24.7186584
			c10.3731079-9.5188751,18.802124-12.7431793,18.802124-12.7431793s-15.5557861-82.0867767,31.180481-90.0252075
			C795.5164185,133.4626312,823.7006836,137.6615906,837.21698,170.3815918z"/>
	</g>
	<g>
		<path fill="#304954" d="M744.824585,746.0189209c0,0-29.2520752,51.1075439-40.5296631,63.715271
			s-28.2953491,27.9783325-12.8988037,30.2490845c15.3965454,2.2706909,55.5960083-20.3135986,64.3769531-28.8596191
			c8.7810059-8.5460815,17.4854126-17.3967285,21.7911377-22.4857788c4.3056641-5.0890503,5.5830688-3.1901855,7.9459839-4.0330811
			c2.362915-0.8429565,10.5539551-9.461853,11.7161865-13.8527222c1.1622314-4.3908081-16.8044434-36.1939087-22.6357422-37.6140747
			S750.9515991,735.8108521,744.824585,746.0189209z"/>
		
			<linearGradient id="SVGID_18_" gradientUnits="userSpaceOnUse" x1="791.3308105" y1="792.2345581" x2="342.2893677" y2="792.2345581">
			<stop  offset="0" style="stop-color:#FFFFFF;stop-opacity:0"/>
			<stop  offset="1" style="stop-color:#FFFFFF"/>
		</linearGradient>
		<path fill="url(#SVGID_18_)" d="M744.824585,746.0189209c0,0-29.2520752,51.1075439-40.5296631,63.715271
			s-28.2953491,27.9783325-12.8988037,30.2490845c11.5340576,1.7010498,32.2188721-16.630188,41.8713989-25.9348145
			c2.7371826-2.6384888,2.4936523-7.0823975-0.5235596-9.3954468c-5.1542358-3.9512939-11.8033447-9.6707153-11.0824585-12.394043
			c1.1621704-4.3908691,23.9641113-12.991333,18.1328125-14.411499
			C733.9630737,776.4273071,750.9515991,735.8108521,744.824585,746.0189209z"/>
		
			<linearGradient id="SVGID_19_" gradientUnits="userSpaceOnUse" x1="729.076416" y1="782.7652588" x2="753.1054077" y2="814.803894">
			<stop  offset="0" style="stop-color:#222E51;stop-opacity:0"/>
			<stop  offset="1" style="stop-color:#231F20"/>
		</linearGradient>
		<path fill="url(#SVGID_19_)" d="M771.6378174,785.2528076c0,0-16.1001587,20.1552734-32.8704224,30.4176636
			c-14.4284668,8.8293457-33.0397949,24.4234619-47.3712769,24.3128052
			c15.3965454,2.2706909,55.5960083-20.3135986,64.3769531-28.8596191
			c8.7810059-8.5460815,17.4854126-17.3967285,21.7911377-22.4857788c4.3056641-5.0890503,5.5830688-3.1901855,7.9459839-4.0330811
			c2.362915-0.8429565,10.5539551-9.461853,11.7161865-13.8527222c0.3619385-1.4187012-2.2462769-7.5736084-2.2462769-7.5736084
			S774.28479,780.8427734,771.6378174,785.2528076z"/>
		<path fill="#C56B50" d="M759.7605591,700.7819214l-33.34552,21.526001l18.109314,25.2804565
			c0,0,3.8574829,3.6921387,10.7630005,2.0024414c11.8653564-2.9033813,17.0205078-11.7642212,16.2785645-13.9547119
			C770.8239746,733.4455566,759.7605591,700.7819214,759.7605591,700.7819214z"/>
		
			<linearGradient id="SVGID_20_" gradientUnits="userSpaceOnUse" x1="751.2653198" y1="748.8266602" x2="734.5784912" y2="601.9829712">
			<stop  offset="0" style="stop-color:#222E51;stop-opacity:0"/>
			<stop  offset="1" style="stop-color:#231F20"/>
		</linearGradient>
		<path fill="url(#SVGID_20_)" d="M759.7605591,700.7819214l-33.34552,21.526001l12.6279297,17.628479
			c0,0,9.5195313-2.9230957,16.4249878-4.612793c11.8654175-2.9033813,16.8399048,2.5029907,16.0979614,0.3125
			C770.8239746,733.4455566,759.7605591,700.7819214,759.7605591,700.7819214z"/>
		<path fill="#ED5A76" d="M593.6732788,503.6433716c16.5199585-13.2650452,53.5130005-15.8936768,71.8108521,10.2701416
			s107.1985474,183.3255005,108.6948242,189.602417c1.4962769,6.2768555-28.7263184,43.2380981-57.4541626,35.3118896
			L599.3746338,542.0369263C599.3746338,542.0369263,577.1533813,516.9084473,593.6732788,503.6433716z"/>
		
			<linearGradient id="SVGID_21_" gradientUnits="userSpaceOnUse" x1="591.4227905" y1="649.6481323" x2="1269.1394043" y2="477.9758911">
			<stop  offset="0" style="stop-color:#222E51;stop-opacity:0"/>
			<stop  offset="1" style="stop-color:#231F20"/>
		</linearGradient>
		<path fill="url(#SVGID_21_)" d="M665.4841309,513.9135132c18.2978516,26.1638184,107.1985474,183.3255005,108.6948242,189.602417
			c1.4962769,6.2768555-28.7263184,43.2380981-57.4541626,35.3118896c0,0,27.9815063,17.2281494,1.1221924-67.342041
			c-13.8389282-43.5736694-63.34198-97.2647095-75.3648071-129.4488525
			C631.1704102,511.7563171,656.6140137,501.2302856,665.4841309,513.9135132z"/>
		
			<linearGradient id="SVGID_22_" gradientUnits="userSpaceOnUse" x1="668.6490479" y1="631.3675537" x2="1136.083374" y2="497.2400513">
			<stop  offset="0" style="stop-color:#222E51;stop-opacity:0"/>
			<stop  offset="1" style="stop-color:#231F20"/>
		</linearGradient>
		<path fill="url(#SVGID_22_)" d="M665.4841309,513.9135132c18.2978516,26.1638184,107.1985474,183.3255005,108.6948242,189.602417
			c-5.041626,17.7907715-28.152771,30.3676147-28.152771,30.3676147s-10.9203491-14.652771-7.5090942-38.6082153
			c5.8114014-40.8100586-47.52948-124.8616943-47.52948-124.8616943S647.1862793,487.7496948,665.4841309,513.9135132z"/>
		<path fill="#ED5A76" d="M735.5944214,451.7987976c0,0-108.7422485,18.2535095-136.2197876,39.3742676
			c-27.4776001,21.1207581-16.9649048,60.1194153,83.6564331,39.1183167
			c100.6212769-21.0011597,128.0777588-38.6283569,123.4986572-50.0432739
			C801.9506836,468.8331909,800.324585,438.368927,735.5944214,451.7987976z"/>
		
			<linearGradient id="SVGID_23_" gradientUnits="userSpaceOnUse" x1="583.4028931" y1="464.9469299" x2="1145.7357178" y2="521.9168701">
			<stop  offset="0" style="stop-color:#222E51;stop-opacity:0"/>
			<stop  offset="1" style="stop-color:#231F20"/>
		</linearGradient>
		<path fill="url(#SVGID_23_)" d="M735.5944214,451.7987976c0,0-108.7422485,18.2535095-136.2197876,39.3742676
			c-16.972168,13.0457153,28.5314331,13.5151367,65.5050659,14.7376099c22.8859863,0.7566528,23.1315308,8.0293274,61.6018066,0
			c100.6213379-21.0011292,84.6273193-14.2476501,80.0482178-25.6625671
			C801.9506836,468.8331909,800.324585,438.368927,735.5944214,451.7987976z"/>
		<g>
			<g>
				<path fill="#ED5A76" d="M587.5648804,834.432251c0,0-65.2276001-30.7871094-65.2276001-47.3070068
					c3.7545166-3.7545776,59.6117554,2.2526855,63.9721069,9.0108643
					C590.6696777,802.8942261,587.5648804,834.432251,587.5648804,834.432251z"/>
			</g>
			<g>
				<path fill="#C56B50" d="M550.3710938,778.3659668l-20.6289673,36.2610474c0,0-6.3201904,28.2320557,32.2262573,21.9745483
					c5.9176025-4.6204834,24.4284058-38.1710205,24.4284058-38.1710205S580.4827881,760.9047241,550.3710938,778.3659668z"/>
				
					<linearGradient id="SVGID_24_" gradientUnits="userSpaceOnUse" x1="545.1853027" y1="821.8911743" x2="638.2072754" y2="702.2915039">
					<stop  offset="0" style="stop-color:#222E51;stop-opacity:0"/>
					<stop  offset="1" style="stop-color:#231F20"/>
				</linearGradient>
				<path fill="url(#SVGID_24_)" d="M550.3710938,778.3659668l-14.6322632,25.7202148c0,0,34.81604,1.4230347,26.2295532,32.5153809
					c5.9176025-4.6204834,24.4284058-38.1710205,24.4284058-38.1710205S580.4827881,760.9047241,550.3710938,778.3659668z"/>
			</g>
			<path fill="#304954" d="M532.4962158,814.0543213c3.2591553,5.0748901,11.7729492,16.5536499,35.7261353,12.0614014
				c1.3805542-0.2589111,2.5866699,0.953125,2.2861938,2.3251953
				c-2.4991455,11.4107666-11.7230225,52.2512817-16.0337524,53.7157593
				c-2.9465332,1.0010376-7.56073,2.0020752-10.8640137,2.6572266c-2.0661011,0.40979-6.5056763-7.5800171-6.5056763-7.5800171
				s-31.5975647,8.7405396-43.5186462,8.7405396s-76.1080017,3.1299438-76.9595032-10.5619507
				c-0.8515015-13.6919556,59.5975952-27.31604,70.2453308-34.1281128
				c9.0275879-5.7755127,35.3954773-22.984436,42.4844055-27.8640137
				C530.3980103,812.7036133,531.8131104,812.9906006,532.4962158,814.0543213z"/>
			
				<linearGradient id="SVGID_25_" gradientUnits="userSpaceOnUse" x1="500.3442383" y1="868.2206421" x2="400.9221497" y2="781.5977173">
				<stop  offset="0" style="stop-color:#FFFFFF;stop-opacity:0"/>
				<stop  offset="1" style="stop-color:#FFFFFF"/>
			</linearGradient>
			<path fill="url(#SVGID_25_)" d="M515.8294678,836.6015625c3.2539063,3.8379517-32.4502563,11.0446167-32.7507629,12.416687
				c-2.464386,11.2522583,23.6647644,12.6278687,0.1739502,21.5480957s-51.3117676,7.7026367-66.6257019,4.8461304
				c-0.8515015-13.6919556,59.5975952-27.31604,70.2453308-34.1281128
				c9.0275879-5.7755127,35.3954773-22.984436,42.4844055-27.8640137
				C530.3980103,812.7036133,512.5755005,832.7636108,515.8294678,836.6015625z"/>
			
				<linearGradient id="SVGID_26_" gradientUnits="userSpaceOnUse" x1="486.4425659" y1="841.2556152" x2="491.1855469" y2="890.9321289">
				<stop  offset="0" style="stop-color:#222E51;stop-opacity:0"/>
				<stop  offset="1" style="stop-color:#231F20"/>
			</linearGradient>
			<path fill="url(#SVGID_26_)" d="M492.6730652,879.8376465c-30.7965393,2.4625854-62.9474487-0.8516846-76.0461121-4.4251709
				c0.8515015,13.6918945,65.0384216,10.5619507,76.9595032,10.5619507s43.5186462-8.7405396,43.5186462-8.7405396
				s4.4395752,7.9898071,6.5056763,7.5800171c3.3032837-0.6551514,7.9174805-1.656189,10.8640137-2.6572266
				c0.7669067-0.2605591,1.6893311-1.767395,2.7017822-4.1331787l4.545105-13.7265625c0,0-8.59729,1.3647461-19.6105347,5.4278564
				C531.0978394,873.7879028,513.0461426,878.2085571,492.6730652,879.8376465z"/>
			<path fill="#ED5A76" d="M726.4815063,574.6190186L587.5648804,834.432251c0,0-8.909668-18.772644-23.1768799-30.0361938
				c-14.2672119-11.2636108-42.0507202-17.270813-42.0507202-17.270813S654.2600708,533.8244019,667.6443481,519.052002
				C681.0286255,504.2795715,741.4996338,520.1029663,726.4815063,574.6190186z"/>
			
				<linearGradient id="SVGID_27_" gradientUnits="userSpaceOnUse" x1="546.7871704" y1="617.6243286" x2="1212.743042" y2="1160.255127">
				<stop  offset="0" style="stop-color:#222E51;stop-opacity:0"/>
				<stop  offset="1" style="stop-color:#231F20"/>
			</linearGradient>
			<path fill="url(#SVGID_27_)" d="M726.4815063,574.6190186L587.5648804,834.432251c0,0-8.909668-18.772644-23.1768799-30.0361938
				c-14.2672119-11.2636108-42.0507202-17.270813-42.0507202-17.270813s38.619751-54.2966309,73.5887451-70.0845337
				C667.6443481,684.6610718,657.5002441,565.1185913,726.4815063,574.6190186z"/>
			
				<linearGradient id="SVGID_28_" gradientUnits="userSpaceOnUse" x1="617.5620117" y1="673.164917" x2="800.5246582" y2="879.1004639">
				<stop  offset="0" style="stop-color:#222E51;stop-opacity:0"/>
				<stop  offset="1" style="stop-color:#231F20"/>
			</linearGradient>
			<path fill="url(#SVGID_28_)" d="M726.4815063,574.6190186L587.5648804,834.432251c0,0-8.909668-18.772644-23.1768799-30.0361938
				c-14.2672119-11.2636108-42.0507202-17.270813-42.0507202-17.270813s37.8129272-30.2349854,73.5887451-33.9448853
				C635.4736938,749.0793457,641.6438599,676.7421265,726.4815063,574.6190186z"/>
		</g>
		<g>
			<path fill="#ED5A76" d="M875.2628174,511.7643127c0,0,0.7509155,40.3275452-18.772644,48.5874939
				c-19.5234985,8.2599487-111.7838745,13.8421631-138.6431885,13.8421631
				c-26.859375,0-63.3366089-43.1275024-50.2026367-55.1419678c13.1339722-12.0144958,134.3063354-50.218811,134.3063354-50.218811
				S882.7576294,474.4559631,875.2628174,511.7643127z"/>
			
				<linearGradient id="SVGID_29_" gradientUnits="userSpaceOnUse" x1="769.2716675" y1="577.5667114" x2="908.3799438" y2="264.8095703">
				<stop  offset="0" style="stop-color:#222E51;stop-opacity:0"/>
				<stop  offset="1" style="stop-color:#231F20"/>
			</linearGradient>
			<path fill="url(#SVGID_29_)" d="M875.2628174,511.7643127c0,0,0.7509155,40.3275452-18.772644,48.5874939
				c-19.5234985,8.2599487-50.0810547,10.0618286-108.5617676,12.8492432
				c-40.2237549,1.9172363-43.7770386,0.8435669-54.3847046-15.6026001
				c-5.6452026-8.7523804,35.675354-2.960144,77.5111694-29.2852783c41.8358154-26.3251953-7.7272339-46.89505-7.7272339-46.89505
				c21.7941895-7.2789917,38.6230469-12.5849304,38.6230469-12.5849304S882.7576294,474.4559631,875.2628174,511.7643127z"/>
			
				<linearGradient id="SVGID_30_" gradientUnits="userSpaceOnUse" x1="754.1171875" y1="503.9447937" x2="1200.182373" y2="862.4909058">
				<stop  offset="0" style="stop-color:#222E51;stop-opacity:0"/>
				<stop  offset="1" style="stop-color:#231F20"/>
			</linearGradient>
			<path fill="url(#SVGID_30_)" d="M875.2628174,511.7643127c0,0,0.7509155,40.3275452-18.772644,48.5874939
				c-19.5234985,8.2599487-124.6209106,14.2672119-124.6209106,14.2672119l-22.9555054-2.3613892
				c-3.774231-0.3882446-4.2463379-5.6991577-0.5969238-6.7372437
				c32.4043579-9.2173462,99.3261108-28.5981445,103.8121338-32.7017822
				c13.1340332-12.0145264-10.1782837-63.9854126-10.1782837-63.9854126S882.7576294,474.4559631,875.2628174,511.7643127z"/>
		</g>
	</g>
	<path fill="#ED5A76" d="M756.3695068,318.0596619c0,0-4.8848877-53.0579529-12.0145264-50.0603638
		c-15.8583984,6.6675415-30.1765137,13.463562-31.2877197,22.3602905
		c-2.0028076,16.0349121-20.5247192,97.6177063-22.0265503,107.1291504
		c-1.5018311,9.5114746,29.2791138,40.3323669,39.9231567,11.4304504
		C741.286499,380.8900146,756.3695068,318.0596619,756.3695068,318.0596619z"/>
	
		<linearGradient id="SVGID_31_" gradientUnits="userSpaceOnUse" x1="749.6555176" y1="322.1447144" x2="570.0231323" y2="405.9731445">
		<stop  offset="0" style="stop-color:#FFFFFF;stop-opacity:0"/>
		<stop  offset="1" style="stop-color:#FFFFFF"/>
	</linearGradient>
	<path fill="url(#SVGID_31_)" d="M709.619873,359.4430237l-6.6245728,1.0470276c0,0,11.1831665-79.0271912,10.0719604-70.1304626
		c-2.0028076,16.0349121-20.5247192,97.6177063-22.0265503,107.1291504
		c-1.5018311,9.5114746,8.7605591-27.3444519,8.7605591-27.3444519s9.2942505-7.2607727,9.8186035-9.8094177
		C709.7229004,359.8343506,710.0532837,359.1723633,709.619873,359.4430237z"/>
	
		<linearGradient id="SVGID_32_" gradientUnits="userSpaceOnUse" x1="712.4338379" y1="330.7357178" x2="863.8664551" y2="436.6133728">
		<stop  offset="0" style="stop-color:#222E51;stop-opacity:0"/>
		<stop  offset="1" style="stop-color:#231F20"/>
	</linearGradient>
	<path fill="url(#SVGID_32_)" d="M756.3695068,318.0596619c0,0-5.6246948-54.4177551-12.0145264-50.0603638
		c-6.3898315,4.3573608-18.5223389,39.7979736-23.027771,55.3166809
		c-2.8169556,9.7029724,8.0084839,52.3130798,0.2503052,54.3154907s-24.3567505,9.5264893-24.9195557,13.0909729
		c-1.50177,9.5114746,23.6618652,47.0986633,34.3059082,18.1967468
		C741.286499,380.8900146,756.3695068,318.0596619,756.3695068,318.0596619z"/>
	<path fill="#ED5A76" d="M750.3571777,266.9980774c0,0-12.3717041,6.2770386-14.1238403,8.5297546
		s-1.9108887,35.6622314-6.7681274,47.4674377c-8.2599487,20.0754395-3.7545166,29.7859192,0,38.5464783
		s13.6382446,25.1005859,13.6382446,25.1005859l-22.7774658,81.3480835l50.7647095-1.5018005
		c0,0,75.4708862,61.157074,111.180603,56.1510315c0,0,4.6723022-86.437561-3.6710815-109.7990417l13.8918457-116.7931213
		c0.0258179-8.3457642-5.0016479-15.8717651-12.7238159-19.037323c-15.7945557-6.474762-54.8995972-21.278656-61.2404785-22.694046
		C809.1831665,252.2302704,765.8707886,257.2362976,750.3571777,266.9980774z"/>
	
		<linearGradient id="SVGID_33_" gradientUnits="userSpaceOnUse" x1="794.9796143" y1="402.6603088" x2="824.6820679" y2="626.5969849">
		<stop  offset="0" style="stop-color:#222E51;stop-opacity:0"/>
		<stop  offset="1" style="stop-color:#231F20"/>
	</linearGradient>
	<path fill="url(#SVGID_33_)" d="M819.4973755,436.2020874c-34.6328735,5.3547668-82.7913818-22.2764587-82.7913818-22.2764587
		l-16.3800049,54.0647888l50.7647095-1.5018005c0,0,75.4708862,61.157074,111.180603,56.1510315
		c0,0,4.6723022-86.437561-3.6710815-109.7990417C878.6002197,412.8406067,854.130249,430.8473511,819.4973755,436.2020874z"/>
	
		<linearGradient id="SVGID_34_" gradientUnits="userSpaceOnUse" x1="756.7832031" y1="399.3451233" x2="1316.5447998" y2="562.2457886">
		<stop  offset="0" style="stop-color:#222E51;stop-opacity:0"/>
		<stop  offset="1" style="stop-color:#231F20"/>
	</linearGradient>
	<path fill="url(#SVGID_34_)" d="M859.9944458,340.8371277c0,0-25.9477539,38.2775574-37.7955933,40.9754028
		c-29.008728,6.6055603-51.5799561,6.5771179-51.5799561,6.5771179l-27.5154419-1.7473145l-6.3974609,27.2832947
		c0,0-6.885498,28.6870117,61.0195923,27.6312256c61.4263306-0.9550781,48.8359985,86.0888367,84.5457153,81.0827942
		c0,0,4.6723022-86.437561-3.6710815-109.7990417L859.9944458,340.8371277z"/>
	
		<linearGradient id="SVGID_35_" gradientUnits="userSpaceOnUse" x1="735.5360107" y1="401.218811" x2="908.744873" y2="397.4642944">
		<stop  offset="0" style="stop-color:#222E51;stop-opacity:0"/>
		<stop  offset="1" style="stop-color:#231F20"/>
	</linearGradient>
	<path fill="url(#SVGID_35_)" d="M768.133667,348.9719238c0,0-3.7420044,15.0934143-2.878479,18.6474915
		c1.2932129,6.0906677,5.3637085,30.0361938,5.3637085,30.0361938l-14.2493896,54.5705566h3.7545166l14.0169067-55.0711365
		l-7.2587891-30.5368347L768.133667,348.9719238z"/>
	<g>
		<path fill="#ED5A76" d="M768.133667,348.9719238l16.7202148-99.3598633
			c0.1263428-1.0203705-0.8959961-1.7953033-1.8391113-1.3859253c-7.5819702,3.2908325-33.2749023,14.5579834-41.1278076,19.4952393
			c-0.8596191,0.5404663-0.8231201,1.7989197,0.067627,2.2863464c5.0077515,2.7402954,18.3650513,10.1965332,17.4185181,11.2575684
			c-2.6333008,2.9516602-6.3486328,10.3702393-7.4439087,12.6134338c-0.1995239,0.4085693-0.1733398,0.8842163,0.0643311,1.2717896
			L768.133667,348.9719238z"/>
		
			<linearGradient id="SVGID_36_" gradientUnits="userSpaceOnUse" x1="827.2509155" y1="273.6372986" x2="515.3723145" y2="422.2348328">
			<stop  offset="0" style="stop-color:#FFFFFF;stop-opacity:0"/>
			<stop  offset="1" style="stop-color:#FFFFFF"/>
		</linearGradient>
		<path fill="url(#SVGID_36_)" d="M768.133667,348.9719238l16.7202148-99.3598633
			c0.1263428-1.0203705-0.8959961-1.7953033-1.8391113-1.3859253c-7.5819702,3.2908325-33.2749023,14.5579834-41.1278076,19.4952393
			c-0.8596191,0.5404663-0.8231201,1.7989197,0.067627,2.2863464c5.0077515,2.7402954,18.3650513,10.1965332,17.4185181,11.2575684
			c-2.6333008,2.9516602-6.3486328,10.3702393-7.4439087,12.6134338c-0.1995239,0.4085693-0.1733398,0.8842163,0.0643311,1.2717896
			L768.133667,348.9719238z"/>
	</g>
	<path fill="#C56B50" d="M782.4008789,218.9401398l21.2756348-23.2780762l5.5066528,56.5682068
		c0,0-5.4072266,14.1003265-18.5223389,14.1003265s-7.175293-13.349411-7.175293-13.349411L782.4008789,218.9401398z"/>
	
		<linearGradient id="SVGID_37_" gradientUnits="userSpaceOnUse" x1="797.2120361" y1="250.149353" x2="780.8239746" y2="108.933075">
		<stop  offset="0" style="stop-color:#222E51;stop-opacity:0"/>
		<stop  offset="1" style="stop-color:#231F20"/>
	</linearGradient>
	<path fill="url(#SVGID_37_)" d="M782.4008789,218.9401398l21.2756348-23.2780762l4.6447754,47.7147064
		c-1.9121704-4.4959259-25.3154907-5.450592-25.3154907-5.450592L782.4008789,218.9401398z"/>
	<path fill="#C56B50" d="M766.331543,156.0626526c-5.5708008,3.6539612-20.2632446,11.4511871-18.0477905,33.8095398
		c2.9376221,29.6472321,14.7803955,45.42099,23.6878662,47.7213593
		c12.8928833,2.2050629,28.8778076-11.1027832,32.8312378-29.7918396
		c2.3978882-11.3352509,6.3787842-36.2167816-4.557251-48.5044098
		C793.1508179,151.3256226,771.9022827,152.4087067,766.331543,156.0626526z"/>
	
		<linearGradient id="SVGID_38_" gradientUnits="userSpaceOnUse" x1="770.4465332" y1="198.7660675" x2="826.0134888" y2="66.8570099">
		<stop  offset="0" style="stop-color:#222E51;stop-opacity:0"/>
		<stop  offset="1" style="stop-color:#231F20"/>
	</linearGradient>
	<path fill="url(#SVGID_38_)" d="M766.331543,156.0626526c-5.5708008,3.6539612-20.9230347,11.5264282-18.0477905,33.8095398
		c14.9653931-5.5920868,25.0797729-10.2422485,36.5807495-7.7264252
		c11.5009766,2.5158386,19.295105,18.4786835,20.0635376,7.5090637c2.3978271-11.3352509,6.2536011-18.0699005-4.6824341-30.3575287
		C793.1508179,151.3256226,771.9022827,152.4087067,766.331543,156.0626526z"/>
	<path fill="#304954" d="M801.4238281,183.8978882c0,0-6.5078735-9.5114746-11.513916-18.5223389
		s-21.5097656,6.4304047-33.9077759-8.2986755c-12.3980713-14.7290955-11.8974609-20.235733-2.3859863-27.7447815
		c9.5114746-7.5090561,22.1965942,0,22.1965942,0s16.0886841-4.3410797,29.2349854,2.5851898
		c13.1463013,6.9262848,18.6529541,27.1988068,18.6529541,27.1988068S816.8118896,187.90271,801.4238281,183.8978882z"/>
	
		<linearGradient id="SVGID_39_" gradientUnits="userSpaceOnUse" x1="788.7351074" y1="115.3192291" x2="785.7315063" y2="172.388031">
		<stop  offset="0" style="stop-color:#222E51;stop-opacity:0"/>
		<stop  offset="1" style="stop-color:#231F20"/>
	</linearGradient>
	<path fill="url(#SVGID_39_)" d="M801.4238281,183.8978882c0,0-6.5078735-9.5114746-11.513916-18.5223389
		s-21.5097656,6.4304047-33.9077759-8.2986755c-12.3980713-14.7290955-3.9660645-10.2135468,5.5454102-17.7226105
		c9.5114746-7.5090485,18.1748047,3.7201843,30.6864624,5.4965363c12.5117188,1.7763519,20.2675781-6.9829865,21.0326538-6.0520172
		c7.492981,9.1182251,10.434021,20.3173065,10.434021,20.3173065S816.8118896,187.90271,801.4238281,183.8978882z"/>
	<path fill="#C56B50" d="M799.3592529,193.6622162c0,0-0.9245605-16.9928741,8.8959961-15.3392792
		s8.4626465,26.3209381,0.4664917,29.7942047C800.725647,211.5904083,798.3873901,201.7560577,799.3592529,193.6622162z"/>
	
		<linearGradient id="SVGID_40_" gradientUnits="userSpaceOnUse" x1="780.621582" y1="190.4622192" x2="856.4630127" y2="199.2227783">
		<stop  offset="0.2973632" style="stop-color:#222E51;stop-opacity:0"/>
		<stop  offset="1" style="stop-color:#231F20"/>
	</linearGradient>
	<path fill="url(#SVGID_40_)" d="M806.072998,193.5222321c0,0-4.302124-10.342392,1.7019043-9.3314209
		c6.0040894,1.0109711,5.1738892,16.092041,0.2852173,18.2155151S805.4788208,198.4706268,806.072998,193.5222321z"/>
	<path fill="#304954" d="M772.3887939,157.6161957c0,0-10.0419312,22.6985321-25.8109741,22.4482269
		c-15.7689819-0.2503052-22.2469482-8.6816254-21.2457886-19.1943054
		c1.0012207-10.5126801,2.2527466-16.7702179,8.2600098-15.0181122c6.0072021,1.752121,7.2970581,5.7485046,7.2970581,5.7485046
		s-4.6418457-11.4582672,5.6887207-14.4618835C756.9083862,134.1349945,784.6535645,145.852005,772.3887939,157.6161957z"/>
	
		<linearGradient id="SVGID_41_" gradientUnits="userSpaceOnUse" x1="743.3623657" y1="105.4391708" x2="755.8774414" y2="187.5381622">
		<stop  offset="0" style="stop-color:#222E51;stop-opacity:0"/>
		<stop  offset="1" style="stop-color:#231F20"/>
	</linearGradient>
	<path fill="url(#SVGID_41_)" d="M772.3887939,157.6161957c0,0-10.0419312,22.6985321-25.8109741,22.4482269
		c-15.7689819-0.2503052-20.4674683-11.1874695-19.4662476-21.7001495s17.7440186,1.7549438,17.7440186,1.7549438
		s-9.7279663-20.2744446,1.722229-22.9805908C756.9083862,134.1349945,784.6535645,145.852005,772.3887939,157.6161957z"/>
	<path fill="#304954" d="M783.1489868,253.8482971c0,0,0.8370972,8.477478,8.6799316,8.1437378
		c7.8427734-0.3337402,17.1873779-12.0144806,17.1873779-12.0144806l-32.9512329,78.7382965l-7.9313965,20.256073
		c0,0,4.4403076-40.5551453,5.6293945-52.4382324c1.6965942-16.9545898,3.7826538-22.441803,4.7330933-28.7827759
		C778.9988403,264.3975525,783.1489868,253.8482971,783.1489868,253.8482971z"/>
	<path fill="#ED5A76" d="M809.7758179,244.4302368l40.3526001,19.952179
		c0.5150757,0.2546692,0.4212036,1.0158997-0.1402588,1.1378174l-30.0396729,6.523407
		c-0.3249512,0.0705872-0.5327759,0.3894348-0.4660645,0.7152405l5.6351929,27.5318604
		c0.0509644,0.2491455-0.0586548,0.5037231-0.2747803,0.6377869l-56.7091675,48.043396l40.8077393-104.2193298
		C809.0714722,244.4214935,809.4569702,244.2725677,809.7758179,244.4302368z"/>
	
		<linearGradient id="SVGID_42_" gradientUnits="userSpaceOnUse" x1="888.2217407" y1="285.4180908" x2="588.3338013" y2="319.3571777">
		<stop  offset="0" style="stop-color:#FFFFFF;stop-opacity:0"/>
		<stop  offset="1" style="stop-color:#FFFFFF"/>
	</linearGradient>
	<path fill="url(#SVGID_42_)" d="M809.7758179,244.4302368l40.3526001,19.952179
		c0.5150757,0.2546692,0.4212036,1.0158997-0.1402588,1.1378174l-30.0396729,6.523407
		c-0.3249512,0.0705872-0.5327759,0.3894348-0.4660645,0.7152405l5.6351929,27.5318604
		c0.0509644,0.2491455-0.0586548,0.5037231-0.2747803,0.6377869l-56.7091675,48.043396l40.8077393-104.2193298
		C809.0714722,244.4214935,809.4569702,244.2725677,809.7758179,244.4302368z"/>
	<path fill="#ED5A76" d="M857.5498657,404.6640625c0,0-16.8530884-89.2269592-16.1021729-102.4892883
		s25.1685791-26.1485596,42.1276245-22.0032959c14.715271,3.5968323,20.2219238,50.4293213,21.7237549,81.2034302
		c1.50177,30.7740784,13.263916,93.8477783-7.0105591,98.6651611
		C878.0140991,464.8574524,860.6095581,450.0269165,857.5498657,404.6640625z"/>
	
		<linearGradient id="SVGID_43_" gradientUnits="userSpaceOnUse" x1="867.2814331" y1="371.6045532" x2="804.4003296" y2="389.2994995">
		<stop  offset="0" style="stop-color:#FFFFFF;stop-opacity:0"/>
		<stop  offset="1" style="stop-color:#FFFFFF"/>
	</linearGradient>
	<path fill="url(#SVGID_43_)" d="M857.5498657,404.6640625c0,0-12.4020386-61.8067932-11.651123-75.0691223
		c0.5961304-10.5293274,14.3544312,73.4857483,14.3544312,73.4857483l3.2779541,7.8560181l-4.5470581,11.8786621
		C858.9840698,422.8153687,858.2692871,415.3300171,857.5498657,404.6640625z"/>
	
		<linearGradient id="SVGID_44_" gradientUnits="userSpaceOnUse" x1="836.0337524" y1="358.8650818" x2="1281.5321045" y2="455.8443298">
		<stop  offset="0" style="stop-color:#222E51;stop-opacity:0"/>
		<stop  offset="1" style="stop-color:#231F20"/>
	</linearGradient>
	<path fill="url(#SVGID_44_)" d="M870.0064697,412.1034241c0.5911865-3.6195984,19.3156128-4.4510803,22.0855713-4.4385986
		c-0.8505249-21.7275391-5.9619141-58.0897827-23.3370361-116.8880615
		c0.1882935-13.2822571,14.8203125-10.6052856,14.8203125-10.6052856
		c14.715271,3.5968323,20.2219238,50.4293213,21.7237549,81.2034302c1.50177,30.7740784,13.263916,93.8477783-7.0105591,98.6651611
		C878.0140991,464.8574524,868.0040894,424.3632813,870.0064697,412.1034241z"/>
	<path fill="#ED5A76" d="M904.1687622,434.309021c0,0-13.5447998-22.9384766-30.0646973-22.187561
		c-16.5198975,0.750885-83.270874,16.9753418-83.270874,16.9753418s1.1660156,6.5989075,2.9981079,15.1149597
		c1.8321533,8.5160522-0.6674805,15.0180969-0.6674805,15.0180969s74.0893555,13.2084656,103.4581299,1.2708435
		C909.8879395,457.9976807,904.1687622,434.309021,904.1687622,434.309021z"/>
	
		<linearGradient id="SVGID_45_" gradientUnits="userSpaceOnUse" x1="845.9503174" y1="456.0358276" x2="759.368042" y2="298.137085">
		<stop  offset="0" style="stop-color:#FFFFFF;stop-opacity:0"/>
		<stop  offset="1" style="stop-color:#FFFFFF"/>
	</linearGradient>
	<path fill="url(#SVGID_45_)" d="M817.8734131,428.1196594c0,0,72.7505493-16.749115,56.2306519-15.9981995
		c-16.5198975,0.750885-83.270874,16.9753418-83.270874,16.9753418s1.1660156,6.5989075,2.9981079,15.1149597
		c1.8321533,8.5160522-0.6674805,15.0180969-0.6674805,15.0180969L817.8734131,428.1196594z"/>
	
		<linearGradient id="SVGID_46_" gradientUnits="userSpaceOnUse" x1="841.5540771" y1="432.7496033" x2="906.385437" y2="560.5467529">
		<stop  offset="0" style="stop-color:#222E51;stop-opacity:0"/>
		<stop  offset="1" style="stop-color:#231F20"/>
	</linearGradient>
	<path fill="url(#SVGID_46_)" d="M904.1687622,434.309021c0,0-4.8557739-8.2233582-12.2984619-14.661499
		c-3.3118286-2.8647766,0.6218872,14.5521545-24.5927734,25.3145447
		c-9.7861328,4.0054321-67.8760986,9.1715393-67.8760986,9.1715393l-6.2376099,5.0962524
		c0,0,74.0893555,13.2084656,103.4581299,1.2708435C909.8879395,457.9976807,904.1687622,434.309021,904.1687622,434.309021z"/>
	<path fill="#ED5A76" d="M698.5497437,454.133606c0,0,15.1184082-0.961792,21.7762451-13.7271729
		c6.6578979-12.7653809,22.7774658-52.8860779-1.0011597-58.8933105
		c-15.9032593-4.0176697-21.3313599-4.9572449-32.8392944,29.1219482
		C677.5986938,436.9520874,673.2692871,453.6329956,698.5497437,454.133606z"/>
	
		<linearGradient id="SVGID_47_" gradientUnits="userSpaceOnUse" x1="699.8849487" y1="411.4536133" x2="647.8668823" y2="437.6063232">
		<stop  offset="0" style="stop-color:#FFFFFF;stop-opacity:0"/>
		<stop  offset="1" style="stop-color:#FFFFFF"/>
	</linearGradient>
	<path fill="url(#SVGID_47_)" d="M680.8986206,433.9493713c0,0,0.1975708-11.2208252,7.2950439-27.0112
		C695.2911377,391.1477661,680.8986206,433.9493713,680.8986206,433.9493713z"/>
	
		<linearGradient id="SVGID_48_" gradientUnits="userSpaceOnUse" x1="690.9316406" y1="416.0064087" x2="827.0958252" y2="428.7717896">
		<stop  offset="0" style="stop-color:#222E51;stop-opacity:0"/>
		<stop  offset="1" style="stop-color:#231F20"/>
	</linearGradient>
	<path fill="url(#SVGID_48_)" d="M698.5497437,454.133606c0,0,15.1184082-0.961792,21.7762451-13.7271729
		c6.6578979-12.7653809,22.7774658-52.8860779-1.0011597-58.8933105
		c-15.9032593-4.0176697,0.6126709,6.8210449-10.7630005,32.1618042
		C697.1861572,439.0157166,673.2692871,453.6329956,698.5497437,454.133606z"/>
	<g>
		<path fill="#ED5A76" d="M715.8555908,451.5539551c0,0,3.2026978-1.2104492,4.4703979-9.1989136
			c0,0-2.6920776-17.8336792-18.9274292-19.3355103c-16.2353516-1.5018005-25.3096313,3.6711121-26.3771973,11.6807556
			l3.1748657,11.7058411L715.8555908,451.5539551z"/>
		
			<linearGradient id="SVGID_49_" gradientUnits="userSpaceOnUse" x1="697.4465332" y1="416.0707092" x2="698.3210449" y2="502.5209961">
			<stop  offset="0" style="stop-color:#FFFFFF;stop-opacity:0"/>
			<stop  offset="1" style="stop-color:#FFFFFF"/>
		</linearGradient>
		<path fill="url(#SVGID_49_)" d="M715.8555908,451.5539551c0,0,3.2026978-1.2104492,4.4703979-9.1989136
			c0,0-2.6920776-17.8336792-18.9274292-19.3355103c-16.2353516-1.5018005-25.3096313,3.6711121-26.3771973,11.6807556
			l3.1748657,11.7058411L715.8555908,451.5539551z"/>
	</g>
	<g>
		<polygon fill="#BFB6A3" points="590.4193726,481.6184387 706.3867188,451.6638794 809.1831665,465.9087524 
			804.9835205,478.6207581 715.095459,504.2795715 		"/>
		
			<linearGradient id="SVGID_50_" gradientUnits="userSpaceOnUse" x1="694.7210693" y1="353.7433777" x2="706.7355347" y2="637.5856323">
			<stop  offset="0" style="stop-color:#222E51;stop-opacity:0"/>
			<stop  offset="1" style="stop-color:#231F20"/>
		</linearGradient>
		<polygon fill="url(#SVGID_50_)" points="590.4193726,481.6184387 706.3867188,451.6638794 809.1831665,465.9087524 
			708.0612183,498.6106873 715.095459,504.2795715 		"/>
	</g>
	<g>
		<path fill="#C56B50" d="M689.5905762,428.4425049c2.0024414,0,19.4401245,7.5924988,21.1921997,9.1777344
			c1.7521362,1.5852661,4.5653687,7.9041443,6.8416138,13.5162964c0.9475098,2.3361511-1.4211426,16.728302-1.6714478,18.9810181
			s-7.7609253,2.7118225-9.0915527-2.0439148s-0.3337402-11.7641907-0.3337402-11.7641907s-5.3397217-3.5042419-6.3409424-3.5042419
			s-7.2587891,7.2354431-7.2587891,7.2354431s-2.5029907,13.1013489-2.0858154,16.9393311
			c0.2244873,2.0656128-3.1704712,3.0039673-7.175354,1.760437c-1.5654907-0.486084-2.7532959-5.9321289-2.7532959-5.9321289
			s0.09021,3.8745117-1.5852661,4.5888672c-1.675415,0.714325-5.6786499,0.2979736-8.5102539-1.418396
			c-0.7114258-0.4312134-1.3348999-5.0060425-1.3348999-5.0060425s-2.7533569,5.1729126-7.7851563,0.6674805
			c-1.0439453-0.9347229-1.9766235-4.5246277-1.9766235-4.5246277s-3.7545166,0.1121216-4.5054321-1.6447449
			c-0.2064819-0.4830017,0-17.0041809,0-17.0041809s4.8045654-10.552124,6.0072021-12.6819458
			C665.3689575,428.4425049,687.5881958,428.4425049,689.5905762,428.4425049z"/>
		
			<linearGradient id="SVGID_51_" gradientUnits="userSpaceOnUse" x1="687.3253174" y1="470.1983643" x2="681.3181152" y2="322.269989">
			<stop  offset="0" style="stop-color:#222E51;stop-opacity:0"/>
			<stop  offset="1" style="stop-color:#231F20"/>
		</linearGradient>
		<path fill="url(#SVGID_51_)" d="M689.5905762,428.4425049c2.0024414,0,19.4401245,7.5924988,21.1921997,9.1777344
			c1.7521362,1.5852661,4.5653687,7.9041443,6.8416138,13.5162964c0.9475098,2.3361511-1.4211426,16.728302-1.6714478,18.9810181
			s-3.9954834,0.6261902-5.3261108-4.1295471S709.125,454.133606,709.125,454.133606s-6.5078125-4.0333557-7.5090332-4.0333557
			s-8.3035278,4.9996338-10.6283569,5.249939c-2.3247681,0.2503052-35.7717896-6.8835449-35.7717896-6.8835449
			s4.8045654-10.552124,6.0072021-12.6819458C665.3689575,428.4425049,687.5881958,428.4425049,689.5905762,428.4425049z"/>
	</g>
	<g>
		<path fill="#ED5A76" d="M790.5041504,466.3491516c0,0-10.8815308-8.5381165-7.59198-37.2493591
			c0,0,6.2773438-0.5218201,8.5195923,12.2199097C793.6740723,454.0614624,790.5041504,466.3491516,790.5041504,466.3491516z"/>
	</g>
	<g>
		<path fill="#C56B50" d="M753.3658447,433.4789124c0-1.9398499-7.6948853-1.2719421-8.7976074,0.3821716
			c-0.428894,0.6433411-11.1971436,11.3261414-11.1971436,11.3261414s-2.2058105,12.7521057-1.7004395,13.4259644
			c0.8270264,1.1027222,7.6795044,1.3783875,10.8696289-1.9297791
			C745.7304077,453.3752136,753.3658447,435.4187317,753.3658447,433.4789124z"/>
		
			<linearGradient id="SVGID_52_" gradientUnits="userSpaceOnUse" x1="737.9378662" y1="450.9327087" x2="783.0906372" y2="401.0042114">
			<stop  offset="0" style="stop-color:#222E51;stop-opacity:0"/>
			<stop  offset="1" style="stop-color:#231F20"/>
		</linearGradient>
		<path fill="url(#SVGID_52_)" d="M753.3439941,433.4789124c0-1.9398499-7.6948853-1.2719421-8.7976074,0.3821716
			c-0.428894,0.6433411-11.1971436,11.3261414-11.1971436,11.3261414s1.2730103,9.785553,1.7783813,10.4593811
			c0.8270264,1.1027527,4.2006836,4.3449707,7.3908081,1.0368042
			C745.7085571,453.3752136,753.3439941,435.4187317,753.3439941,433.4789124z"/>
		<path fill="#C56B50" d="M798.4197388,458.7185974l-7.9128418-0.1739197c0,0-11.2566528,5.0654602-23.3128052,3.2625122
			c-1.1524048,0.1202087-7.8148804,9.7047729-10.824585,10.4252014c-3.0097656,0.7204285-7.1687012-2.8834229-7.1687012-2.8834229
			s-2.2176514,4.0430908-6.0934448,3.5847168c-3.2712402,0.4736023-3.62854-0.1491699-4.5450439-1.099884
			c-0.5001221-0.5187683-0.9165649-3.0006104-0.9165649-3.0006104s-1.8195801,3.6482239-3.1876221,3.6482239
			s-7.861145-1.1585083-7.3139038-3.3565063c0.5471802-2.197998,15.1730347-31.2007141,21.2670288-35.8520813
			c6.0939941-4.6513977,44.4525146,0,44.4525146,0S802.387085,451.1487122,798.4197388,458.7185974z"/>
		
			<linearGradient id="SVGID_53_" gradientUnits="userSpaceOnUse" x1="746.1437988" y1="459.7939148" x2="989.8829956" y2="336.1490173">
			<stop  offset="0" style="stop-color:#222E51;stop-opacity:0"/>
			<stop  offset="1" style="stop-color:#231F20"/>
		</linearGradient>
		<path fill="url(#SVGID_53_)" d="M798.4197388,458.7185974l-5.8756104-7.0105591l-22.227417-1.9278564l-9.4417725-2.0980225
			l-9.2611694-6.7243347l-10.0409546,1.1561584l6.8384399-8.841156c6.0939941-4.6513977,44.4525146,0,44.4525146,0
			S802.387085,451.1487122,798.4197388,458.7185974z"/>
	</g>
	<g>
		<path fill="#ED5A76" d="M782.6529541,429.2954407l16.1448364-3.2054749c0,0,15.8282471,21.3019409,8.0856934,39.3919373
			l-16.3594971,0.8672485C790.5239868,466.3491516,788.8209839,434.2244873,782.6529541,429.2954407z"/>
		
			<linearGradient id="SVGID_54_" gradientUnits="userSpaceOnUse" x1="814.8856812" y1="427.4191589" x2="654.6347656" y2="542.9649048">
			<stop  offset="0" style="stop-color:#FFFFFF;stop-opacity:0"/>
			<stop  offset="1" style="stop-color:#FFFFFF"/>
		</linearGradient>
		<path fill="url(#SVGID_54_)" d="M782.6529541,429.2954407l5.9219971-1.1757813
			c4.2888184,5.1531677,1.9490356,38.2294922,1.9490356,38.2294922S789.8264771,437.157135,782.6529541,429.2954407z"/>
		
			<linearGradient id="SVGID_55_" gradientUnits="userSpaceOnUse" x1="788.7736816" y1="441.4892578" x2="864.7402954" y2="507.4437866" gradientTransform="matrix(0.9985978 -0.0529384 0.0529384 0.9985978 -22.9942627 41.9499779)">
			<stop  offset="0" style="stop-color:#222E51;stop-opacity:0"/>
			<stop  offset="1" style="stop-color:#231F20"/>
		</linearGradient>
		<path fill="url(#SVGID_55_)" d="M792.953064,427.2504272l5.8447266-1.1604614c0,0,15.7861938,21.1968689,8.0856934,39.3919373
			l-16.3594971,0.8672485c0,0,7.4530029-3.4270935,9.1436157-8.0867004
			C801.3582764,453.6028442,792.953064,427.2504272,792.953064,427.2504272z"/>
	</g>
	<g>
		
			<linearGradient id="SVGID_56_" gradientUnits="userSpaceOnUse" x1="776.8582153" y1="367.8324585" x2="779.236084" y2="404.6268005">
			<stop  offset="0" style="stop-color:#222E51;stop-opacity:0"/>
			<stop  offset="1" style="stop-color:#231F20"/>
		</linearGradient>
		<circle fill="url(#SVGID_56_)" cx="777.5457153" cy="378.4704895" r="3.3420382"/>
	</g>
	<g>
		
			<linearGradient id="SVGID_57_" gradientUnits="userSpaceOnUse" x1="776.4922485" y1="403.4581299" x2="780.4970703" y2="439.1261597">
			<stop  offset="0" style="stop-color:#222E51;stop-opacity:0"/>
			<stop  offset="1" style="stop-color:#231F20"/>
		</linearGradient>
		<circle fill="url(#SVGID_57_)" cx="777.5457153" cy="412.8406067" r="3.3420382"/>
	</g>
	<g>
		<polygon fill="#BFB6A3" points="714.6481934,504.3985291 665.4841309,397.1550293 656.6659546,396.8212891 
			547.2006226,391.1477661 539.190979,394.8188782 594.6130371,488.904541 707.0599976,506.7872009 		"/>
		
			<linearGradient id="SVGID_58_" gradientUnits="userSpaceOnUse" x1="632.4892578" y1="447.8050537" x2="810.6665039" y2="796.4126587">
			<stop  offset="0" style="stop-color:#222E51;stop-opacity:0"/>
			<stop  offset="1" style="stop-color:#231F20"/>
		</linearGradient>
		<path fill="url(#SVGID_58_)" d="M714.6481934,504.3985291l-49.1640625-107.2434998l-8.8181763-0.3337402
			c0,0,37.2418213,82.1755981-14.8982544,76.2745972c-52.1401367-5.9009705-47.1546631,15.8086548-47.1546631,15.8086548
			l112.4469604,17.8826599L714.6481934,504.3985291z"/>
		
			<linearGradient id="SVGID_59_" gradientUnits="userSpaceOnUse" x1="734.9039917" y1="428.4524536" x2="493.0361328" y2="548.8760986">
			<stop  offset="0" style="stop-color:#222E51;stop-opacity:0"/>
			<stop  offset="1" style="stop-color:#231F20"/>
		</linearGradient>
		<polygon fill="url(#SVGID_59_)" points="714.6481934,504.3985291 665.4841309,397.1550293 659.6254883,403.4785767 
			707.0599976,506.7872009 		"/>
		
			<linearGradient id="SVGID_60_" gradientUnits="userSpaceOnUse" x1="608.0202026" y1="366.5759888" x2="575.2306519" y2="536.2806396">
			<stop  offset="0" style="stop-color:#222E51;stop-opacity:0"/>
			<stop  offset="1" style="stop-color:#231F20"/>
		</linearGradient>
		<polygon fill="url(#SVGID_60_)" points="659.6254883,403.4785767 665.4841309,397.1550293 546.2094727,391.6020508 
			539.190979,394.8188782 		"/>
	</g>
	
		<linearGradient id="SVGID_61_" gradientUnits="userSpaceOnUse" x1="751.7999268" y1="456.7668457" x2="767.4821167" y2="484.859436">
		<stop  offset="0" style="stop-color:#222E51;stop-opacity:0"/>
		<stop  offset="1" style="stop-color:#231F20"/>
	</linearGradient>
	<path fill="url(#SVGID_61_)" d="M748.5788574,470.149292c0,0,2.5029907-3.4416504,7.0397339-11.9126282
		c0.8397217-1.5679932,5.2563477-4.3657532,5.2563477-4.3657532s-5.3557739,2.2301941-6.2318726,3.2313843
		C753.7670288,458.1035156,748.5788574,470.149292,748.5788574,470.149292z"/>
	
		<linearGradient id="SVGID_62_" gradientUnits="userSpaceOnUse" x1="737.4768677" y1="452.8248901" x2="761.7244873" y2="496.261261">
		<stop  offset="0" style="stop-color:#222E51;stop-opacity:0"/>
		<stop  offset="1" style="stop-color:#231F20"/>
	</linearGradient>
	<path fill="url(#SVGID_62_)" d="M748.0180664,449.6388245l-3.6071777,6.6751709l-6.7651367,12.5191956
		c0,0-1.3029785,2.3457947-1.9069824,2.870697c-0.6040649,0.5249023,5.6751709-12.3843079,6.8015137-15.0204773
		C743.666687,454.0472107,748.0180664,449.6388245,748.0180664,449.6388245z"/>
</g>
<g id="Layer_x5F_Window_1">
	<g>
		<polygon opacity="0.5" fill="#F6B042" points="340.0560303,132.3390808 518.4500122,139.384491 538.0844116,294.2486267 
			360.7703857,281.9853821 		"/>
		<g>
			<polygon fill="#ED5A76" points="490.4313354,175.5851135 395.6806641,171.4231262 394.1077881,159.5444946 
				488.6868896,163.1192017 			"/>
			<polygon fill="#ED5A76" points="492.973053,200.7027283 420.3568115,197.908371 418.7372742,185.840744 491.2209167,188.1845093 
							"/>
			<polygon fill="#ED5A76" points="494.9721375,223.0869904 422.355896,220.2926331 420.7363586,208.2250061 
				493.2200317,210.5687714 			"/>
		</g>
	</g>
</g>
<g id="Layer_x5F_Window_2">
	<polygon opacity="0.5" fill="#F6B042" points="457.7560425,237.7029877 583.2064819,245.6962128 599.3746338,355.6360474 
		474.6029663,343.9679871 	"/>
	<g>
		
			<ellipse transform="matrix(0.644127 -0.7649186 0.7649186 0.644127 -37.6213074 510.385437)" fill="#EFE4E8" cx="529.7042236" cy="295.6246033" rx="29.9659634" ry="33.3915596"/>
		<path fill="#ED5A76" d="M534.5080566,280.1669312l3.4644165,32.0087585
			c0.2730713,2.5227661-2.6791992,3.7861633-4.678894,2.0023193l-17.9407349-16.0043945
			c-1.239624-1.105835-1.4337158-2.8987732-0.4334717-4.0046082l14.4763184-16.0043945
			C531.0092773,276.3807678,534.2350464,277.644165,534.5080566,280.1669312z"/>
	</g>
</g>
</svg>
